G04 MADE WITH FRITZING*
G04 WWW.FRITZING.ORG*
G04 DOUBLE SIDED*
G04 HOLES PLATED*
G04 CONTOUR ON CENTER OF CONTOUR VECTOR*
%ASAXBY*%
%FSLAX23Y23*%
%MOIN*%
%OFA0B0*%
%SFA1.0B1.0*%
%ADD10C,0.075000*%
%ADD11C,0.074000*%
%ADD12C,0.070000*%
%ADD13C,0.078000*%
%ADD14C,0.039370*%
%ADD15R,0.075000X0.075000*%
%ADD16R,0.070000X0.069972*%
%ADD17R,0.078000X0.078000*%
%ADD18C,0.024000*%
%LNCOPPER1*%
G90*
G70*
G54D10*
X818Y252D03*
X1018Y252D03*
X818Y1452D03*
X1018Y1452D03*
G54D11*
X1418Y252D03*
X1518Y252D03*
X1318Y252D03*
X1418Y1452D03*
X1318Y1452D03*
X1518Y1452D03*
G54D10*
X2614Y1006D03*
X2614Y706D03*
X2514Y1006D03*
X2514Y706D03*
X2414Y1006D03*
X2414Y706D03*
X2314Y1006D03*
X2314Y706D03*
X2214Y1006D03*
X2214Y706D03*
X2114Y1006D03*
X2114Y706D03*
X2014Y1006D03*
X2014Y706D03*
X1914Y1006D03*
X1914Y706D03*
G54D12*
X1618Y1152D03*
X1518Y1152D03*
X1418Y1152D03*
X1318Y1152D03*
X1218Y1152D03*
X1118Y1152D03*
X1018Y1152D03*
X918Y1152D03*
X818Y1152D03*
X718Y1152D03*
X618Y1152D03*
X518Y1152D03*
X418Y1152D03*
X318Y1152D03*
X218Y1152D03*
X1618Y552D03*
X1518Y552D03*
X1418Y552D03*
X1318Y552D03*
X1218Y552D03*
X1118Y552D03*
X1018Y552D03*
X918Y552D03*
X818Y552D03*
X718Y552D03*
X618Y552D03*
X518Y552D03*
X418Y552D03*
X318Y552D03*
X218Y552D03*
G54D13*
X2018Y452D03*
X1918Y452D03*
X2318Y452D03*
X2218Y452D03*
X2618Y452D03*
X2518Y452D03*
X2618Y1252D03*
X2518Y1252D03*
X2318Y1252D03*
X2218Y1252D03*
X2018Y1252D03*
X1918Y1252D03*
X2818Y1252D03*
X2818Y1152D03*
X2818Y552D03*
X2818Y452D03*
G54D14*
X2914Y869D03*
X1318Y1652D03*
X1513Y62D03*
X2217Y1153D03*
X2044Y1098D03*
X984Y970D03*
X1196Y828D03*
X2149Y614D03*
X1706Y616D03*
X897Y719D03*
G54D15*
X818Y252D03*
X818Y1452D03*
X2614Y1006D03*
G54D16*
X1618Y1152D03*
G54D17*
X2018Y452D03*
X2318Y452D03*
X2618Y452D03*
X2618Y1252D03*
X2318Y1252D03*
X2018Y1252D03*
X2818Y1252D03*
X2818Y552D03*
G54D18*
X2914Y888D02*
X2912Y1244D01*
D02*
X2912Y1244D02*
X2848Y1249D01*
D02*
X2912Y548D02*
X2914Y850D01*
D02*
X2848Y551D02*
X2912Y548D01*
D02*
X2916Y150D02*
X1333Y150D01*
D02*
X2912Y548D02*
X2916Y150D01*
D02*
X1500Y1552D02*
X1018Y1553D01*
D02*
X1018Y1553D02*
X1018Y1481D01*
D02*
X1518Y1483D02*
X1519Y1533D01*
D02*
X2910Y1555D02*
X1538Y1552D01*
D02*
X2912Y1244D02*
X2910Y1555D01*
D02*
X1314Y427D02*
X1516Y427D01*
D02*
X1516Y427D02*
X1517Y523D01*
D02*
X1317Y283D02*
X1314Y427D01*
D02*
X2202Y889D02*
X2211Y978D01*
D02*
X2296Y984D02*
X2212Y884D01*
D02*
X2202Y851D02*
X2212Y735D01*
D02*
X2211Y854D02*
X2298Y730D01*
D02*
X2219Y870D02*
X2895Y869D01*
D02*
X2717Y704D02*
X2717Y452D01*
D02*
X2717Y452D02*
X2788Y452D01*
D02*
X2643Y706D02*
X2717Y704D01*
D02*
X1315Y169D02*
X1317Y221D01*
D02*
X1018Y150D02*
X1295Y150D01*
D02*
X1018Y223D02*
X1018Y150D01*
D02*
X105Y1527D02*
X203Y1649D01*
D02*
X96Y221D02*
X105Y1527D01*
D02*
X203Y1649D02*
X1299Y1652D01*
D02*
X1494Y62D02*
X212Y66D01*
D02*
X212Y66D02*
X96Y221D01*
D02*
X818Y1353D02*
X1391Y1351D01*
D02*
X1412Y1369D02*
X1415Y1421D01*
D02*
X818Y1423D02*
X818Y1353D01*
D02*
X1225Y1273D02*
X1220Y1181D01*
D02*
X1411Y1271D02*
X1225Y1273D01*
D02*
X1410Y1351D02*
X1411Y1271D01*
D02*
X2116Y1252D02*
X2018Y1252D01*
D02*
X2114Y1035D02*
X2116Y1252D01*
D02*
X2018Y1252D02*
X2047Y1243D01*
D02*
X2322Y1334D02*
X2319Y1282D01*
D02*
X2018Y1353D02*
X2304Y1352D01*
D02*
X2018Y1282D02*
X2018Y1353D01*
D02*
X2618Y1353D02*
X2618Y1282D01*
D02*
X2342Y1352D02*
X2618Y1353D01*
D02*
X2018Y351D02*
X2018Y422D01*
D02*
X2301Y350D02*
X2018Y351D01*
D02*
X2319Y422D02*
X2320Y350D01*
D02*
X2339Y350D02*
X2618Y351D01*
D02*
X2618Y351D02*
X2618Y422D01*
D02*
X2104Y680D02*
X2028Y480D01*
D02*
X920Y910D02*
X918Y1123D01*
D02*
X1915Y906D02*
X920Y910D01*
D02*
X1914Y735D02*
X1915Y906D01*
D02*
X2418Y1074D02*
X2235Y1146D01*
D02*
X2414Y1005D02*
X2418Y1074D01*
D02*
X2418Y978D02*
X2414Y1005D01*
D02*
X1003Y969D02*
X1733Y962D01*
D02*
X1733Y962D02*
X1740Y1098D01*
D02*
X1740Y1098D02*
X2025Y1098D01*
D02*
X825Y828D02*
X1177Y828D01*
D02*
X819Y581D02*
X825Y828D01*
D02*
X2512Y611D02*
X2168Y614D01*
D02*
X2513Y678D02*
X2512Y611D01*
D02*
X1707Y635D02*
X1710Y712D01*
D02*
X1710Y712D02*
X916Y719D01*
G04 End of Copper1*
M02*