G04 MADE WITH FRITZING*
G04 WWW.FRITZING.ORG*
G04 DOUBLE SIDED*
G04 HOLES PLATED*
G04 CONTOUR ON CENTER OF CONTOUR VECTOR*
%ASAXBY*%
%FSLAX23Y23*%
%MOIN*%
%OFA0B0*%
%SFA1.0B1.0*%
%ADD10C,0.085000*%
%ADD11C,0.080000*%
%ADD12C,0.088000*%
%ADD13C,0.084000*%
%ADD14C,0.049370*%
%ADD15R,0.085000X0.085000*%
%ADD16R,0.080000X0.079972*%
%ADD17R,0.088000X0.088000*%
%LNMASK1*%
G90*
G70*
G54D10*
X2619Y987D03*
X2619Y687D03*
X2519Y987D03*
X2519Y687D03*
X2419Y987D03*
X2419Y687D03*
X2319Y987D03*
X2319Y687D03*
X2219Y987D03*
X2219Y687D03*
X2119Y987D03*
X2119Y687D03*
X2019Y987D03*
X2019Y687D03*
X1919Y987D03*
X1919Y687D03*
G54D11*
X1623Y1132D03*
X1523Y1132D03*
X1423Y1132D03*
X1323Y1132D03*
X1223Y1132D03*
X1123Y1132D03*
X1023Y1132D03*
X923Y1132D03*
X823Y1132D03*
X723Y1132D03*
X623Y1132D03*
X523Y1132D03*
X423Y1132D03*
X323Y1132D03*
X223Y1132D03*
X1623Y532D03*
X1523Y532D03*
X1423Y532D03*
X1323Y532D03*
X1223Y532D03*
X1123Y532D03*
X1023Y532D03*
X923Y532D03*
X823Y532D03*
X723Y532D03*
X623Y532D03*
X523Y532D03*
X423Y532D03*
X323Y532D03*
X223Y532D03*
G54D12*
X2623Y532D03*
X2523Y532D03*
X2023Y1132D03*
X1923Y1132D03*
X2823Y889D03*
X2823Y789D03*
X2323Y1132D03*
X2223Y1132D03*
X2323Y532D03*
X2223Y532D03*
X2023Y532D03*
X1923Y532D03*
X2623Y1132D03*
X2523Y1132D03*
G54D10*
X823Y1432D03*
X1023Y1432D03*
X823Y232D03*
X1023Y232D03*
G54D13*
X1423Y1432D03*
X1323Y1432D03*
X1523Y1432D03*
X1423Y232D03*
X1523Y232D03*
X1323Y232D03*
G54D12*
X2123Y1432D03*
X2023Y1432D03*
G54D14*
X1476Y797D03*
X1716Y389D03*
X2028Y821D03*
X1164Y1421D03*
X2508Y821D03*
G54D15*
X2619Y987D03*
G54D16*
X1623Y1132D03*
G54D17*
X2623Y532D03*
X2023Y1132D03*
X2823Y889D03*
X2323Y1132D03*
X2323Y532D03*
X2023Y532D03*
X2623Y1132D03*
G54D15*
X823Y1432D03*
X823Y232D03*
G54D17*
X2123Y1432D03*
G04 End of Mask1*
M02*