; NON-PLATED HOLES START AT T1
; THROUGH (PLATED) HOLES START AT T100
M48
INCH
T100C0.015748
T101C0.038000
T102C0.040000
T103C0.036000
T104C0.035000
%
T100
X011640Y014213
X017160Y003893
X025080Y008213
X014760Y007973
X020280Y008213
T101
X020226Y005321
X025226Y011321
X019226Y005321
X026226Y011321
X022226Y005321
X023226Y005321
X028226Y007886
X020226Y011321
X019226Y011321
X028226Y008886
X025226Y005321
X022226Y011321
X023226Y011321
X020226Y014321
X026226Y005321
X021226Y014321
T102
X015226Y014321
X014226Y014321
X013226Y014321
X015226Y002321
X014226Y002321
X013226Y002321
T103
X016226Y005321
X015226Y005321
X007226Y011321
X010226Y011321
X009226Y005321
X012226Y005321
X004226Y011321
X008226Y005321
X011226Y005321
X003226Y011321
X006226Y005321
X005226Y005321
X016226Y011321
X015226Y011321
X002226Y005321
X009226Y011321
X012226Y011321
X008226Y011321
X011226Y011321
X014226Y005321
X006226Y011321
X013226Y005321
X005226Y011321
X007226Y005321
X010226Y005321
X002226Y011321
X004226Y005321
X003226Y005321
X014226Y011321
X013226Y011321
T104
X010226Y014321
X024190Y009865
X024190Y006865
X021190Y009865
X020190Y009865
X008226Y002321
X021190Y006865
X020190Y006865
X008226Y014321
X026190Y009865
X025190Y009865
X026190Y006865
X023190Y009865
X025190Y006865
X019190Y009865
X022190Y009865
X023190Y006865
X019190Y006865
X022190Y006865
X010226Y002321
T00
M30
