; NON-PLATED HOLES START AT T1
; THROUGH (PLATED) HOLES START AT T100
M48
INCH
T1C0.086614
T100C0.015748
T101C0.038000
T102C0.040000
T103C0.036000
T104C0.035000
%
T1
X029826Y016311
X000785Y016311
X029826Y000694
X000785Y000694
T100
X020441Y010980
X029143Y008685
X011964Y008281
X013177Y016519
X021491Y006142
X022171Y011525
X009836Y009695
X015128Y000620
X017062Y006158
X008966Y007190
T101
X028177Y005519
X022177Y004519
X025177Y012519
X023177Y004519
X026177Y012519
X028177Y011519
X025177Y004519
X028177Y012519
X020177Y012519
X026177Y004519
X019177Y012519
X028177Y004519
X022177Y012519
X020177Y004519
X023177Y012519
X019177Y004519
T102
X013177Y002519
X015177Y014519
X014177Y014519
X013177Y014519
X015177Y002519
X014177Y002519
T103
X013177Y005519
X005177Y011519
X004177Y011519
X007177Y005519
X010177Y005519
X002177Y011519
X006177Y005519
X016177Y011519
X003177Y005519
X013177Y011519
X015177Y005519
X007177Y011519
X010177Y011519
X014177Y005519
X006177Y011519
X009177Y005519
X012177Y005519
X008177Y005519
X011177Y005519
X003177Y011519
X005177Y005519
X004177Y005519
X015177Y011519
X002177Y005519
X014177Y011519
X009177Y011519
X012177Y011519
X016177Y005519
X008177Y011519
X011177Y011519
T104
X024141Y010063
X023141Y010063
X025141Y007063
X019141Y007063
X020141Y010063
X022141Y007063
X021141Y007063
X010177Y002519
X010177Y014519
X025141Y010063
X026141Y007063
X019141Y010063
X022141Y010063
X024141Y007063
X021141Y010063
X023141Y007063
X008177Y002519
X020141Y007063
X008177Y014519
X026141Y010063
T00
M30
