G04 MADE WITH FRITZING*
G04 WWW.FRITZING.ORG*
G04 DOUBLE SIDED*
G04 HOLES PLATED*
G04 CONTOUR ON CENTER OF CONTOUR VECTOR*
%ASAXBY*%
%FSLAX23Y23*%
%MOIN*%
%OFA0B0*%
%SFA1.0B1.0*%
%ADD10C,0.080000*%
%ADD11C,0.088000*%
%ADD12C,0.096614*%
%ADD13R,0.079958X0.080000*%
%LNMASK0*%
G90*
G70*
G54D10*
X97Y1585D03*
X97Y1485D03*
X97Y1385D03*
X97Y1285D03*
X97Y1185D03*
X97Y1085D03*
X97Y985D03*
X97Y885D03*
X97Y785D03*
X97Y685D03*
X97Y585D03*
X97Y485D03*
X97Y385D03*
X97Y285D03*
X97Y185D03*
X697Y1585D03*
X697Y1485D03*
X697Y1385D03*
X697Y1285D03*
X697Y1185D03*
X697Y1085D03*
X697Y985D03*
X697Y885D03*
X697Y785D03*
X697Y685D03*
X697Y585D03*
X697Y485D03*
X697Y385D03*
X697Y285D03*
X697Y185D03*
X297Y1681D03*
X297Y1581D03*
X397Y1681D03*
X397Y1581D03*
X497Y1681D03*
X497Y1581D03*
G54D11*
X997Y1181D03*
X997Y1081D03*
X997Y981D03*
X997Y881D03*
X997Y1181D03*
X997Y1081D03*
X997Y981D03*
X997Y881D03*
X997Y472D03*
X997Y572D03*
X997Y672D03*
X997Y772D03*
G54D12*
X1497Y1681D03*
X1497Y81D03*
X97Y1681D03*
X97Y81D03*
G54D13*
X97Y1585D03*
G04 End of Mask0*
M02*