; NON-PLATED HOLES START AT T1
; THROUGH (PLATED) HOLES START AT T100
M48
INCH
T1C0.086614
T100C0.038000
T101C0.036000
%
T1
X014973Y016810
X000972Y000810
X000972Y016810
X014973Y000810
T100
X009972Y009810
X009972Y004717
X009972Y005717
X009972Y010810
X009972Y006717
X009972Y011810
X009972Y008810
X009972Y007717
T101
X002970Y016810
X006968Y005854
X000968Y005854
X004972Y015811
X006968Y011854
X000968Y011854
X006968Y003854
X000968Y003854
X006968Y008854
X000968Y008854
X003971Y015811
X006968Y001854
X000968Y001854
X006968Y014854
X000968Y014854
X006968Y006854
X000968Y006854
X004972Y016810
X006968Y012854
X000968Y012854
X002970Y015811
X006968Y004854
X000968Y004854
X006968Y009854
X000968Y009854
X003971Y016810
X006968Y010854
X000968Y010854
X006968Y002854
X000968Y002854
X006968Y015854
X000968Y015854
X006968Y007854
X000968Y007854
X006968Y013854
X000968Y013854
T00
M30
