; NON-PLATED HOLES START AT T1
; THROUGH (PLATED) HOLES START AT T100
M48
INCH
T100C0.038000
T101C0.036000
%
T100
X010024Y006717
X010025Y009810
X010024Y007717
X010024Y004717
X010025Y010810
X010024Y005717
X010025Y011810
X010025Y008810
T101
X007025Y011810
X001025Y008810
X007025Y003810
X004028Y016766
X007025Y008810
X001025Y001810
X003028Y016766
X001025Y014810
X001025Y006810
X007025Y001810
X007025Y014810
X007025Y006810
X001025Y012810
X001025Y004810
X007025Y012810
X001025Y009810
X007025Y004810
X005030Y015766
X001025Y010810
X007025Y009810
X001025Y002810
X001025Y015810
X007025Y010810
X001025Y007810
X007025Y002810
X007025Y015810
X004028Y015766
X007025Y007810
X003028Y015766
X001025Y013810
X001025Y005810
X007025Y013810
X007025Y005810
X005030Y016766
X001025Y011810
X001025Y003810
T00
M30
