G04 MADE WITH FRITZING*
G04 WWW.FRITZING.ORG*
G04 DOUBLE SIDED*
G04 HOLES PLATED*
G04 CONTOUR ON CENTER OF CONTOUR VECTOR*
%ASAXBY*%
%FSLAX23Y23*%
%MOIN*%
%OFA0B0*%
%SFA1.0B1.0*%
%ADD10C,0.070000*%
%ADD11C,0.078000*%
%ADD12R,0.069958X0.070000*%
%ADD13C,0.024000*%
%LNCOPPER0*%
G90*
G70*
G54D10*
X103Y1581D03*
X103Y1481D03*
X103Y1381D03*
X103Y1281D03*
X103Y1181D03*
X103Y1081D03*
X103Y981D03*
X103Y881D03*
X103Y781D03*
X103Y681D03*
X103Y581D03*
X103Y481D03*
X103Y381D03*
X103Y281D03*
X103Y181D03*
X703Y1581D03*
X703Y1481D03*
X703Y1381D03*
X703Y1281D03*
X703Y1181D03*
X703Y1081D03*
X703Y981D03*
X703Y881D03*
X703Y781D03*
X703Y681D03*
X703Y581D03*
X703Y481D03*
X703Y381D03*
X703Y281D03*
X703Y181D03*
X303Y1677D03*
X303Y1577D03*
X403Y1677D03*
X403Y1577D03*
X503Y1677D03*
X503Y1577D03*
G54D11*
X1003Y1181D03*
X1003Y1081D03*
X1003Y981D03*
X1003Y881D03*
X1003Y1181D03*
X1003Y1081D03*
X1003Y981D03*
X1003Y881D03*
X1002Y472D03*
X1002Y572D03*
X1002Y672D03*
X1002Y772D03*
G54D12*
X103Y1581D03*
G54D13*
X732Y981D02*
X972Y981D01*
D02*
X732Y881D02*
X972Y881D01*
G04 End of Copper0*
M02*